<svg width="32" height="32" viewBox="0 0 32 32" fill="none" xmlns="http://www.w3.org/2000/svg">
  <defs>
    <linearGradient id="brainGrad" x1="0%" y1="0%" x2="100%" y2="100%">
      <stop offset="0%" style="stop-color:#667eea;stop-opacity:1" />
      <stop offset="100%" style="stop-color:#764ba2;stop-opacity:1" />
    </linearGradient>
    <linearGradient id="accentGrad" x1="0%" y1="0%" x2="100%" y2="100%">
      <stop offset="0%" style="stop-color:#f093fb;stop-opacity:1" />
      <stop offset="100%" style="stop-color:#f5576c;stop-opacity:1" />
    </linearGradient>
  </defs>
  
  <rect width="32" height="32" rx="6" fill="url(#brainGrad)"/>
  
  <!-- Neural network pattern -->
  <circle cx="10" cy="12" r="2" fill="white" opacity="0.9"/>
  <circle cx="22" cy="12" r="2" fill="white" opacity="0.9"/>
  <circle cx="16" cy="20" r="2" fill="white" opacity="0.9"/>
  <circle cx="10" cy="23" r="1.5" fill="url(#accentGrad)"/>
  <circle cx="22" cy="23" r="1.5" fill="url(#accentGrad)"/>
  <circle cx="16" cy="9" r="1.5" fill="url(#accentGrad)"/>
  
  <line x1="10" y1="12" x2="16" y2="9" stroke="white" stroke-width="1" opacity="0.5"/>
  <line x1="22" y1="12" x2="16" y2="9" stroke="white" stroke-width="1" opacity="0.5"/>
  <line x1="10" y1="12" x2="16" y2="20" stroke="white" stroke-width="1" opacity="0.5"/>
  <line x1="22" y1="12" x2="16" y2="20" stroke="white" stroke-width="1" opacity="0.5"/>
  <line x1="16" y1="20" x2="10" y2="23" stroke="white" stroke-width="1" opacity="0.5"/>
  <line x1="16" y1="20" x2="22" y2="23" stroke="white" stroke-width="1" opacity="0.5"/>
  
  <circle cx="16" cy="16" r="2.5" fill="white"/>
  <circle cx="16" cy="16" r="1.2" fill="url(#accentGrad)"/>
</svg>
