<svg width="40" height="40" viewBox="0 0 40 40" fill="none" xmlns="http://www.w3.org/2000/svg">
  <!-- Gradient definitions -->
  <defs>
    <linearGradient id="brainGradient" x1="0%" y1="0%" x2="100%" y2="100%">
      <stop offset="0%" style="stop-color:#667eea;stop-opacity:1" />
      <stop offset="100%" style="stop-color:#764ba2;stop-opacity:1" />
    </linearGradient>
    <linearGradient id="accentGradient" x1="0%" y1="0%" x2="100%" y2="100%">
      <stop offset="0%" style="stop-color:#f093fb;stop-opacity:1" />
      <stop offset="100%" style="stop-color:#f5576c;stop-opacity:1" />
    </linearGradient>
  </defs>
  
  <!-- Brain/Neural Network Symbol -->
  <circle cx="20" cy="20" r="18" fill="url(#brainGradient)" opacity="0.1"/>
  
  <!-- Neural nodes -->
  <circle cx="12" cy="15" r="2.5" fill="url(#brainGradient)"/>
  <circle cx="28" cy="15" r="2.5" fill="url(#brainGradient)"/>
  <circle cx="20" cy="25" r="2.5" fill="url(#brainGradient)"/>
  <circle cx="12" cy="28" r="2" fill="url(#accentGradient)"/>
  <circle cx="28" cy="28" r="2" fill="url(#accentGradient)"/>
  <circle cx="20" cy="12" r="2" fill="url(#accentGradient)"/>
  
  <!-- Neural connections -->
  <line x1="12" y1="15" x2="20" y2="12" stroke="url(#brainGradient)" stroke-width="1.5" opacity="0.6"/>
  <line x1="28" y1="15" x2="20" y2="12" stroke="url(#brainGradient)" stroke-width="1.5" opacity="0.6"/>
  <line x1="12" y1="15" x2="20" y2="25" stroke="url(#brainGradient)" stroke-width="1.5" opacity="0.6"/>
  <line x1="28" y1="15" x2="20" y2="25" stroke="url(#brainGradient)" stroke-width="1.5" opacity="0.6"/>
  <line x1="20" y1="25" x2="12" y2="28" stroke="url(#accentGradient)" stroke-width="1.5" opacity="0.6"/>
  <line x1="20" y1="25" x2="28" y2="28" stroke="url(#accentGradient)" stroke-width="1.5" opacity="0.6"/>
  
  <!-- Central "AI" spark -->
  <circle cx="20" cy="20" r="3" fill="url(#accentGradient)"/>
  <circle cx="20" cy="20" r="1.5" fill="white"/>
</svg>
